HIERARCHY
ROOT Hips
{
	OFFSET -0.001795 -0.223333 0.028219
	CHANNELS 6 Xposition Yposition Zposition Zrotation Yrotation Xrotation 
	JOINT LeftUpLeg
	{
		OFFSET 0.069520 -0.091406 -0.006815
		CHANNELS 3 Zrotation Yrotation Xrotation
		JOINT LeftLeg
		{
			OFFSET 0.034277 -0.375199 -0.004496
			CHANNELS 3 Zrotation Yrotation Xrotation
			JOINT LeftFoot
			{
				OFFSET -0.013596 -0.397961 -0.043693
				CHANNELS 3 Zrotation Yrotation Xrotation
				JOINT LeftToe
				{
					OFFSET 0.026358 -0.055791 0.119288
					CHANNELS 3 Zrotation Yrotation Xrotation
					End Site
					{
						OFFSET 0.000000 0.000000 0.000000
					}
				}
			}
		}
	}
	JOINT RightUpLeg
	{
		OFFSET -0.067670 -0.090522 -0.004320
		CHANNELS 3 Zrotation Yrotation Xrotation
		JOINT RightLeg
		{
			OFFSET -0.038290 -0.382569 -0.008850
			CHANNELS 3 Zrotation Yrotation Xrotation
			JOINT RightFoot
			{
				OFFSET 0.015774 -0.398415 -0.042312
				CHANNELS 3 Zrotation Yrotation Xrotation
				JOINT RightToe
				{
					OFFSET -0.025372 -0.048144 0.123348
					CHANNELS 3 Zrotation Yrotation Xrotation
					End Site
					{
						OFFSET 0.000000 0.000000 0.000000
					}
				}
			}
		}
	}
	JOINT Spine
	{
		OFFSET -0.002533 0.108963 -0.026696
		CHANNELS 3 Zrotation Yrotation Xrotation
		JOINT Spine1
		{
			OFFSET 0.005487 0.135180 0.001092
			CHANNELS 3 Zrotation Yrotation Xrotation
			JOINT Spine2
			{
				OFFSET 0.001457 0.052922 0.025425
				CHANNELS 3 Zrotation Yrotation Xrotation
				JOINT Neck
				{
					OFFSET -0.002778 0.213870 -0.042857
					CHANNELS 3 Zrotation Yrotation Xrotation
					JOINT Head
					{
						OFFSET 0.005152 0.064970 0.051349
						CHANNELS 3 Zrotation Yrotation Xrotation
						End Site
						{
							OFFSET 0.000000 0.000000 0.000000
						}
					}
				}
				JOINT LeftShoulder
				{
					OFFSET 0.078845 0.121749 -0.034090
					CHANNELS 3 Zrotation Yrotation Xrotation
					JOINT LeftArm
					{
						OFFSET 0.090977 0.030469 -0.008868
						CHANNELS 3 Zrotation Yrotation Xrotation
						JOINT LeftForeArm
						{
							OFFSET 0.259612 -0.012772 -0.027456
							CHANNELS 3 Zrotation Yrotation Xrotation
							JOINT LeftHand
							{
								OFFSET 0.249234 0.008986 -0.001171
								CHANNELS 3 Zrotation Yrotation Xrotation
								End Site
								{
									OFFSET 0.000000 0.000000 0.000000
								}
							}
						}
					}
				}
				JOINT RightShoulder
				{
					OFFSET -0.081759 0.118833 -0.038615
					CHANNELS 3 Zrotation Yrotation Xrotation
					JOINT RightArm
					{
						OFFSET -0.096012 0.032551 -0.009143
						CHANNELS 3 Zrotation Yrotation Xrotation
						JOINT RightForeArm
						{
							OFFSET -0.253742 -0.013329 -0.021401
							CHANNELS 3 Zrotation Yrotation Xrotation
							JOINT RightHand
							{
								OFFSET -0.255298 0.007772 -0.005559
								CHANNELS 3 Zrotation Yrotation Xrotation
								End Site
								{
									OFFSET 0.000000 0.000000 0.000000
								}
							}
						}
					}
				}
			}
		}
	}
}
MOTION
Frames: 17
Frame Time: 0.050000
0.039136 1.001066 -0.038989 -3.987329 -8.639198 0.832517 5.682534 -0.233563 -6.861225 -1.751308 1.035854 -22.971806 52.546378 25.432585 123.175317 0.000000 0.000000 0.000000 -2.041285 0.508737 -5.280676 0.098765 -0.437556 -19.366583 -11.292537 -17.704943 112.182305 0.000000 0.000000 0.000000 0.277441 -0.257619 6.307991 5.172889 2.760332 -54.999763 4.276364 2.135392 64.278550 -15.430823 3.109795 -97.194153 0.000000 0.000000 0.000000 22.859659 8.279931 -4.553654 -0.728640 21.154652 0.779029 21.877647 18.075786 2.913257 0.000000 0.000000 0.000000 17.238585 -0.788364 -0.302250 54.088400 21.445504 -3.922454 41.023316 -35.986659 -12.399072 0.000000 0.000000 0.000000 
0.039613 1.000381 -0.038840 -3.762164 -8.299701 0.831173 4.959202 -0.287055 -6.769466 -1.167923 1.070165 -23.056915 52.455324 25.533201 122.469743 0.000000 0.000000 0.000000 -2.360094 0.469479 -4.820030 0.003683 -0.461567 -19.798942 -10.492014 -17.748004 111.377537 0.000000 0.000000 0.000000 0.390402 -0.258460 6.101701 5.358364 2.661066 -54.588441 4.170743 2.413489 63.548988 -14.757568 3.136931 -96.265373 0.000000 0.000000 0.000000 22.669712 7.996843 -4.338496 -0.310593 22.814328 0.987838 24.994650 17.163108 3.146916 0.000000 0.000000 0.000000 17.239790 -1.042691 -0.382320 53.374504 21.394401 -3.832546 43.607725 -37.412214 -13.809117 0.000000 0.000000 0.000000 
0.040326 1.000434 -0.039206 -3.697160 -7.983220 0.843918 4.652885 -0.306516 -6.632247 -1.182505 1.051489 -22.992679 52.238438 25.870809 120.917836 0.000000 0.000000 0.000000 -2.607859 0.504759 -5.268364 -0.085076 -0.480227 -19.542223 -9.786974 -17.574129 112.947559 0.000000 0.000000 0.000000 0.775119 -0.276592 5.903771 5.076617 2.562672 -54.329466 4.330258 2.507842 63.412366 -15.492200 3.109430 -95.537728 0.000000 0.000000 0.000000 22.663334 8.150300 -4.293036 -1.167324 24.737322 0.679210 29.721758 17.374755 3.818060 0.000000 0.000000 0.000000 16.716261 -1.508751 -0.556076 52.878605 22.413119 -3.363518 46.021857 -38.852521 -15.188545 0.000000 0.000000 0.000000 
0.041092 1.000793 -0.040030 -3.622907 -6.794355 0.707126 4.370446 -0.335029 -6.574400 -1.466238 0.970217 -22.932871 51.741171 25.941003 119.160380 0.000000 0.000000 0.000000 -2.796367 0.500506 -5.288762 -0.178210 -0.531102 -19.275835 -10.340843 -18.074375 113.654126 0.000000 0.000000 0.000000 0.793872 -0.265583 5.566789 4.826055 2.298396 -53.604253 4.164509 2.400571 63.005462 -15.225976 3.031100 -95.049622 0.000000 0.000000 0.000000 22.512711 7.425977 -4.000167 -1.170268 26.971312 0.657547 33.673717 18.577492 4.538747 0.000000 0.000000 0.000000 16.419368 -1.730160 -0.557798 51.886930 23.124428 -3.011722 49.337253 -39.700246 -16.784774 0.000000 0.000000 0.000000 
0.041659 1.001973 -0.041246 -3.740994 -5.938919 0.559960 4.262094 -0.350270 -6.574181 -1.596638 0.881626 -22.133979 50.188593 26.369391 116.237397 0.000000 0.000000 0.000000 -2.983321 0.495854 -5.309127 0.350485 -0.517083 -18.687447 -11.146874 -18.614986 113.017319 0.000000 0.000000 0.000000 1.164543 -0.295886 5.732927 4.694189 2.087169 -52.871835 4.035170 2.698873 62.346283 -13.869779 3.006615 -94.132268 0.000000 0.000000 0.000000 22.616500 7.294644 -3.775357 -2.028635 28.870693 0.250057 37.706159 19.790941 5.352212 0.000000 0.000000 0.000000 16.508017 -2.141374 -0.632062 50.944997 24.081108 -2.555256 50.723372 -39.684979 -17.248160 0.000000 0.000000 0.000000 
0.041794 1.001757 -0.042780 -3.645305 -4.365097 0.485387 3.970959 -0.384808 -6.606146 -1.599174 0.806637 -22.051226 48.105829 26.184987 114.304722 0.000000 0.000000 0.000000 -2.904291 0.476007 -5.142056 -0.028197 -0.594466 -18.513640 -12.584230 -19.483366 112.949193 0.000000 0.000000 0.000000 0.830008 -0.280060 5.773801 4.424907 1.796755 -52.102230 3.754416 2.252957 61.620933 -13.512009 2.994601 -93.367369 0.000000 0.000000 0.000000 22.768333 7.241165 -3.606444 -1.839197 29.471812 0.283177 40.555107 21.813238 6.281694 0.000000 0.000000 0.000000 16.767471 -1.890382 -0.416904 49.565500 24.592976 -2.318766 51.721187 -39.134850 -17.498357 0.000000 0.000000 0.000000 
0.041532 1.000810 -0.044262 -3.848470 -3.353241 0.598216 4.346386 -0.382117 -6.721125 -1.835881 0.710396 -21.043329 44.068993 26.387891 110.381343 0.000000 0.000000 0.000000 -2.779268 0.476645 -5.185245 0.207065 -0.600103 -17.954482 -13.241372 -20.098754 111.421499 0.000000 0.000000 0.000000 0.894025 -0.273564 5.506494 3.785438 1.522330 -50.345088 4.047539 2.193365 60.297131 -14.338134 3.117986 -91.268471 0.000000 0.000000 0.000000 23.479031 7.907921 -3.475454 -2.736678 28.487743 -0.110991 44.967260 23.683268 7.604073 0.000000 0.000000 0.000000 16.549889 -2.184914 -0.480882 48.927510 25.401735 -1.828153 51.278795 -36.353644 -16.013672 0.000000 0.000000 0.000000 
0.041253 0.999821 -0.045422 -3.716404 -1.615329 0.465055 4.414690 -0.397827 -6.756599 -1.743383 0.624968 -20.338340 38.048578 25.569380 107.613000 0.000000 0.000000 0.000000 -2.728462 0.399097 -4.279868 0.376836 -0.637833 -17.719108 -15.590696 -21.458678 107.767975 0.000000 0.000000 0.000000 0.410177 -0.236299 5.250702 3.317467 1.203980 -48.216663 4.028822 2.591196 59.105276 -15.356569 3.242774 -88.724091 0.000000 0.000000 0.000000 24.459807 8.851350 -3.183397 -2.717014 25.292287 -0.142297 46.918807 25.918356 8.418203 0.000000 0.000000 0.000000 17.285534 -1.963782 -0.061940 46.461617 25.936069 -1.682614 52.241255 -31.903643 -14.160506 0.000000 0.000000 0.000000 
0.041154 0.998127 -0.046467 -3.965433 0.066174 0.269003 4.693501 -0.380207 -6.347619 -1.577039 0.539257 -18.882215 30.674596 25.109436 100.180580 0.000000 0.000000 0.000000 -2.533049 0.349825 -3.725923 0.539480 -0.639474 -16.573217 -14.988400 -22.076131 103.438374 0.000000 0.000000 0.000000 0.494336 -0.236059 5.100427 2.354654 0.947844 -45.352728 4.767628 3.075783 56.528188 -16.007654 3.801798 -83.947514 0.000000 0.000000 0.000000 25.258264 9.552922 -2.579280 -4.127154 21.557745 -0.692966 52.724182 26.077256 9.273622 0.000000 0.000000 0.000000 17.282886 -2.582123 -0.113340 45.331836 25.805704 -1.483267 51.983462 -24.522396 -10.387498 0.000000 0.000000 0.000000 
0.041623 0.997768 -0.047071 -4.085705 1.910901 -0.250376 4.324291 -0.390170 -6.019369 -1.152267 0.480776 -17.825583 27.389086 24.679253 95.376554 0.000000 0.000000 0.000000 -2.318060 0.267926 -2.798115 0.859444 -0.623110 -15.220080 -15.882558 -23.060877 97.929896 0.000000 0.000000 0.000000 0.809433 -0.246721 4.961066 1.455546 0.786137 -42.168645 4.755632 4.327582 54.205430 -14.127324 4.397612 -78.485734 0.000000 0.000000 0.000000 24.734414 10.068040 -1.868993 -4.541353 16.674695 -0.812355 60.183824 25.502271 9.581725 0.000000 0.000000 0.000000 18.662958 -2.343527 0.517853 41.652983 26.369670 -1.395405 53.117537 -15.371133 -6.071094 0.000000 0.000000 0.000000 
0.042049 0.995892 -0.047897 -3.952820 3.726953 -0.297441 3.916763 -0.386924 -5.491505 -1.015978 0.421027 -16.925701 21.947393 24.027009 86.600357 0.000000 0.000000 0.000000 -2.349411 0.195680 -1.994616 0.900388 -0.605160 -13.926906 -14.367862 -23.121035 89.993377 0.000000 0.000000 0.000000 0.819003 -0.239510 4.777554 -0.016800 0.807231 -39.177109 4.712890 4.578988 51.052432 -13.032919 5.268325 -72.066047 0.000000 0.000000 0.000000 23.189557 9.613377 -1.202819 -6.443394 12.925672 -1.345224 70.186110 22.880443 9.425365 0.000000 0.000000 0.000000 18.527488 -2.665389 0.531688 39.331761 26.651610 -1.164233 54.468698 -1.447731 1.188443 0.000000 0.000000 0.000000 
0.042349 0.994954 -0.048563 -3.770313 4.355471 -0.522218 4.063276 -0.362197 -5.085900 -0.629765 0.409225 -15.954922 14.452276 21.714725 81.557655 0.000000 0.000000 0.000000 -2.304713 0.151221 -1.495844 1.458609 -0.538666 -11.974879 -14.751428 -23.586080 80.841896 0.000000 0.000000 0.000000 1.201253 -0.278558 5.153824 -1.143174 0.927845 -37.161241 4.335952 6.031656 48.892769 -8.855107 5.426127 -65.455830 0.000000 0.000000 0.000000 20.849666 8.438786 -0.582130 -10.065965 7.890090 -2.194277 84.701442 21.729151 10.745739 0.000000 0.000000 0.000000 17.504990 -2.538774 0.778582 34.937388 28.073187 -0.838522 58.211626 20.737969 14.899781 0.000000 0.000000 0.000000 
0.042184 0.992741 -0.049726 -3.649611 5.573100 -0.309346 3.776926 -0.363315 -4.843642 -0.684286 0.358355 -14.148782 9.515259 20.126126 69.045832 0.000000 0.000000 0.000000 -2.379087 0.091435 -0.820151 1.533780 -0.500798 -10.509871 -11.267755 -21.845970 69.944408 0.000000 0.000000 0.000000 1.907410 -0.269506 4.368399 -3.239746 1.279994 -33.281879 3.393165 6.592211 45.056401 -4.034098 4.999503 -57.318704 0.000000 0.000000 0.000000 18.446364 6.246945 0.177613 -16.852822 2.703439 -3.483530 101.948950 15.182293 8.274684 0.000000 0.000000 0.000000 16.326636 -2.868326 0.563682 30.838358 29.356437 -0.463766 72.868027 66.997310 61.157274 0.000000 0.000000 0.000000 
0.042024 0.990525 -0.050392 -3.828113 5.522947 -0.293472 4.262266 -0.352118 -4.790702 -0.380808 0.341917 -12.468367 4.266714 17.171405 61.784482 0.000000 0.000000 0.000000 -1.911873 0.094038 -0.850196 1.622549 -0.431676 -8.473588 -10.162513 -21.052880 61.379909 0.000000 0.000000 0.000000 2.699501 -0.282656 4.003728 -4.775671 1.661463 -29.753444 1.910735 7.078552 41.502697 1.452907 3.432145 -48.922598 0.000000 0.000000 0.000000 15.250681 3.220747 0.751824 -23.786566 -3.492972 -4.131877 118.618829 7.357691 2.717063 0.000000 0.000000 0.000000 13.014074 -1.607367 0.755733 25.737172 31.324277 0.014297 -136.547595 74.010336 -111.356161 0.000000 0.000000 0.000000 
0.042138 0.987809 -0.051012 -3.641274 5.335899 -0.253730 4.047906 -0.343546 -4.613553 -0.675897 0.304833 -10.123002 2.527017 15.398571 51.016955 0.000000 0.000000 0.000000 -1.929752 0.089448 -0.786030 1.694095 -0.348621 -5.721759 -7.821756 -18.988903 49.950153 0.000000 0.000000 0.000000 3.299108 -0.320006 4.141370 -6.223039 2.109786 -26.025062 0.241214 7.894255 36.574106 6.815615 0.782358 -38.922629 0.000000 0.000000 0.000000 12.723162 0.887659 1.293415 -31.234560 -9.148060 -4.106122 130.629434 -4.996606 -17.081678 0.000000 0.000000 0.000000 9.933395 -2.105082 0.104576 20.915983 33.227574 0.302560 -114.873281 59.035410 -70.868645 0.000000 0.000000 0.000000 
0.042918 0.985633 -0.050894 -3.678446 4.737525 -0.163862 4.181973 -0.340862 -4.678107 -0.284849 0.277103 -8.813028 0.229256 13.052443 46.690686 0.000000 0.000000 0.000000 -1.605727 0.062212 -0.464823 1.213246 -0.287156 -4.915832 -6.303177 -17.427060 43.963001 0.000000 0.000000 0.000000 4.453426 -0.365971 4.027168 -8.189800 2.650106 -24.075049 -1.621177 7.986148 34.232047 8.594014 -0.743641 -33.456147 0.000000 0.000000 0.000000 10.858891 -0.884017 1.546711 -36.631059 -12.844793 -3.691524 139.652613 -16.953959 -45.363680 0.000000 0.000000 0.000000 5.975528 -1.594880 -0.132288 15.623416 34.650620 0.063382 -102.918451 46.204960 -46.143972 0.000000 0.000000 0.000000 
0.043766 0.984174 -0.050352 -3.417313 3.969227 -0.212947 4.039590 -0.335818 -4.668900 -0.558120 0.231229 -6.344889 -0.605486 11.107588 39.419348 0.000000 0.000000 0.000000 -1.842029 0.027327 -0.016276 1.221550 -0.231539 -3.163529 -4.520841 -15.137944 35.784458 0.000000 0.000000 0.000000 4.796427 -0.370993 3.923135 -9.450891 3.136117 -21.252683 -3.178404 8.818223 30.778352 11.991400 -3.590114 -27.220582 0.000000 0.000000 0.000000 9.085125 -1.864614 1.708938 -40.391033 -13.926286 -3.425180 147.334333 -28.944828 -80.641166 0.000000 0.000000 0.000000 3.547990 -2.988871 -0.940419 11.196368 35.632747 -0.309199 -94.870058 39.287802 -33.724466 0.000000 0.000000 0.000000 
